<svg width="80" height="85" viewBox="0 0 80 85" fill="none" xmlns="http://www.w3.org/2000/svg">
<g filter="url(#filter0_b_141_8)">
<mask id="path-1-inside-1_141_8" fill="white">
<path d="M0 15C0 6.71573 6.71573 0 15 0H65C73.2843 0 80 6.71573 80 15V70C80 78.2843 73.2843 85 65 85H15C6.71573 85 0 78.2843 0 70V15Z"/>
</mask>
<path d="M0 15C0 6.71573 6.71573 0 15 0H65C73.2843 0 80 6.71573 80 15V70C80 78.2843 73.2843 85 65 85H15C6.71573 85 0 78.2843 0 70V15Z" fill="url(#paint0_linear_141_8)"/>
<path d="M-0.5 15C-0.5 6.43959 6.43959 -0.5 15 -0.5H64.5C73.0604 -0.5 80 6.43959 80 15C80 6.99187 73.2843 0.5 65 0.5H15C6.99187 0.5 0.5 6.99187 0.5 15H-0.5ZM80 85H0H80ZM15 85C6.43959 85 -0.5 78.0604 -0.5 69.5V15C-0.5 6.43959 6.43959 -0.5 15 -0.5V0.5C6.99187 0.5 0.5 6.99187 0.5 15V70C0.5 78.2843 6.99187 85 15 85ZM80 0V85V0Z" fill="white" fill-opacity="0.34" mask="url(#path-1-inside-1_141_8)"/>
</g>
<path d="M46 53V20H57.5" stroke="#5E46F8" stroke-opacity="0.8" stroke-width="4"/>
<circle cx="35.5" cy="52.5" r="12.5" fill="#5E46F8"/>
<defs>
<filter id="filter0_b_141_8" x="-20" y="-20" width="120" height="125" filterUnits="userSpaceOnUse" color-interpolation-filters="sRGB">
<feFlood flood-opacity="0" result="BackgroundImageFix"/>
<feGaussianBlur in="BackgroundImageFix" stdDeviation="10"/>
<feComposite in2="SourceAlpha" operator="in" result="effect1_backgroundBlur_141_8"/>
<feBlend mode="normal" in="SourceGraphic" in2="effect1_backgroundBlur_141_8" result="shape"/>
</filter>
<linearGradient id="paint0_linear_141_8" x1="0" y1="0" x2="97.1929" y2="30.8713" gradientUnits="userSpaceOnUse">
<stop stop-color="#434343"/>
<stop offset="1" stop-color="#1B1B1B"/>
</linearGradient>
</defs>
</svg>
